<mxfile host="app.diagrams.net" modified="2024-01-30T21:17:56.067Z" agent="Mozilla/5.0 (Windows NT 10.0; Win64; x64) AppleWebKit/537.36 (KHTML, like Gecko) Chrome/120.0.0.0 Safari/537.36" etag="_enxeY_YUeVMTEFjjHtk" version="22.1.21" type="github">
  <diagram name="Page-1" id="929967ad-93f9-6ef4-fab6-5d389245f69c">
    <mxGraphModel dx="1430" dy="763" grid="1" gridSize="10" guides="1" tooltips="1" connect="1" arrows="1" fold="1" page="1" pageScale="1.5" pageWidth="1169" pageHeight="826" background="none" math="0" shadow="0">
      <root>
        <mxCell id="0" style=";html=1;" />
        <mxCell id="1" style=";html=1;" parent="0" />
        <mxCell id="1672d66443f91eb5-23" value="Functional Domain" style="text;strokeColor=none;fillColor=none;html=1;fontSize=24;fontStyle=1;verticalAlign=middle;align=center;" parent="1" vertex="1">
          <mxGeometry x="120" y="40" width="1510" height="40" as="geometry" />
        </mxCell>
        <mxCell id="q4jWcIzgWbO0Su68soDs-5" value="&lt;p style=&quot;margin:0px;margin-top:4px;margin-left:10px;text-align:left;&quot;&gt;&lt;b&gt;bdd&lt;/b&gt;&amp;nbsp;Functional Architecture&lt;/p&gt;" style="html=1;shape=mxgraph.sysml.package;labelX=170.86;align=left;spacingLeft=10;overflow=fill;recursiveResize=0;" parent="1" vertex="1">
          <mxGeometry x="400" y="120" width="930" height="400" as="geometry" />
        </mxCell>
        <mxCell id="q4jWcIzgWbO0Su68soDs-6" value="AMG Bobby Car Sound System" style="strokeColor=inherit;fillColor=inherit;gradientColor=inherit;shape=rect;fontStyle=1;html=1;whiteSpace=wrap;align=center;" parent="q4jWcIzgWbO0Su68soDs-5" vertex="1">
          <mxGeometry x="220" y="90" width="450" height="50" as="geometry" />
        </mxCell>
        <mxCell id="q4jWcIzgWbO0Su68soDs-7" value="Engine" style="strokeColor=inherit;fillColor=inherit;gradientColor=inherit;shape=rect;fontStyle=1;html=1;whiteSpace=wrap;align=center;" parent="q4jWcIzgWbO0Su68soDs-5" vertex="1">
          <mxGeometry x="210" y="240" width="100" height="50" as="geometry" />
        </mxCell>
        <mxCell id="q4jWcIzgWbO0Su68soDs-8" value="simulates" style="strokeColor=inherit;fillColor=inherit;gradientColor=inherit;align=right;html=1;verticalAlign=bottom;endArrow=none;startArrow=diamondThin;startSize=14;startFill=1;edgeStyle=orthogonalEdgeStyle;endFill=0;labelBackgroundColor=none;rounded=0;exitX=0.089;exitY=0.997;exitDx=0;exitDy=0;exitPerimeter=0;" parent="q4jWcIzgWbO0Su68soDs-5" source="q4jWcIzgWbO0Su68soDs-6" target="q4jWcIzgWbO0Su68soDs-7" edge="1">
          <mxGeometry x="1" relative="1" as="geometry" />
        </mxCell>
        <mxCell id="q4jWcIzgWbO0Su68soDs-9" value="1" style="resizable=0;html=1;align=left;verticalAlign=top;labelBackgroundColor=none;fontSize=10" parent="q4jWcIzgWbO0Su68soDs-8" connectable="0" vertex="1">
          <mxGeometry x="-1" relative="1" as="geometry" />
        </mxCell>
        <mxCell id="q4jWcIzgWbO0Su68soDs-10" value="1" style="resizable=0;html=1;align=right;verticalAlign=top;labelBackgroundColor=none;fontSize=10" parent="q4jWcIzgWbO0Su68soDs-8" connectable="0" vertex="1">
          <mxGeometry x="1" relative="1" as="geometry">
            <mxPoint x="10" y="-21" as="offset" />
          </mxGeometry>
        </mxCell>
        <mxCell id="q4jWcIzgWbO0Su68soDs-12" value="Police Car" style="strokeColor=inherit;fillColor=inherit;gradientColor=inherit;shape=rect;fontStyle=1;html=1;whiteSpace=wrap;align=center;" parent="q4jWcIzgWbO0Su68soDs-5" vertex="1">
          <mxGeometry x="330" y="240" width="100" height="50" as="geometry" />
        </mxCell>
        <mxCell id="q4jWcIzgWbO0Su68soDs-13" value="simulates" style="strokeColor=inherit;fillColor=inherit;gradientColor=inherit;align=right;html=1;verticalAlign=bottom;endArrow=none;startArrow=diamondThin;startSize=14;startFill=1;edgeStyle=orthogonalEdgeStyle;endFill=0;labelBackgroundColor=none;rounded=0;exitX=0.354;exitY=0.963;exitDx=0;exitDy=0;exitPerimeter=0;" parent="q4jWcIzgWbO0Su68soDs-5" source="q4jWcIzgWbO0Su68soDs-6" target="q4jWcIzgWbO0Su68soDs-12" edge="1">
          <mxGeometry x="1" relative="1" as="geometry">
            <mxPoint x="440" y="125" as="sourcePoint" />
            <mxPoint x="270" y="250" as="targetPoint" />
          </mxGeometry>
        </mxCell>
        <mxCell id="q4jWcIzgWbO0Su68soDs-14" value="1" style="resizable=0;html=1;align=left;verticalAlign=top;labelBackgroundColor=none;fontSize=10" parent="q4jWcIzgWbO0Su68soDs-13" connectable="0" vertex="1">
          <mxGeometry x="-1" relative="1" as="geometry" />
        </mxCell>
        <mxCell id="q4jWcIzgWbO0Su68soDs-15" value="1" style="resizable=0;html=1;align=right;verticalAlign=top;labelBackgroundColor=none;fontSize=10" parent="q4jWcIzgWbO0Su68soDs-13" connectable="0" vertex="1">
          <mxGeometry x="1" relative="1" as="geometry">
            <mxPoint x="10" y="-21" as="offset" />
          </mxGeometry>
        </mxCell>
        <mxCell id="q4jWcIzgWbO0Su68soDs-16" value="Feuerwehr" style="strokeColor=inherit;fillColor=inherit;gradientColor=inherit;shape=rect;fontStyle=1;html=1;whiteSpace=wrap;align=center;" parent="q4jWcIzgWbO0Su68soDs-5" vertex="1">
          <mxGeometry x="450" y="240" width="100" height="50" as="geometry" />
        </mxCell>
        <mxCell id="q4jWcIzgWbO0Su68soDs-17" value="simulates" style="strokeColor=inherit;fillColor=inherit;gradientColor=inherit;align=right;html=1;verticalAlign=bottom;endArrow=none;startArrow=diamondThin;startSize=14;startFill=1;edgeStyle=orthogonalEdgeStyle;endFill=0;labelBackgroundColor=none;rounded=0;exitX=0.621;exitY=1.066;exitDx=0;exitDy=0;exitPerimeter=0;" parent="q4jWcIzgWbO0Su68soDs-5" source="q4jWcIzgWbO0Su68soDs-6" target="q4jWcIzgWbO0Su68soDs-16" edge="1">
          <mxGeometry x="1" relative="1" as="geometry">
            <mxPoint x="622" y="140" as="sourcePoint" />
            <mxPoint x="412" y="250" as="targetPoint" />
          </mxGeometry>
        </mxCell>
        <mxCell id="q4jWcIzgWbO0Su68soDs-18" value="1" style="resizable=0;html=1;align=left;verticalAlign=top;labelBackgroundColor=none;fontSize=10" parent="q4jWcIzgWbO0Su68soDs-17" connectable="0" vertex="1">
          <mxGeometry x="-1" relative="1" as="geometry" />
        </mxCell>
        <mxCell id="q4jWcIzgWbO0Su68soDs-19" value="1" style="resizable=0;html=1;align=right;verticalAlign=top;labelBackgroundColor=none;fontSize=10" parent="q4jWcIzgWbO0Su68soDs-17" connectable="0" vertex="1">
          <mxGeometry x="1" relative="1" as="geometry">
            <mxPoint x="10" y="-21" as="offset" />
          </mxGeometry>
        </mxCell>
        <mxCell id="q4jWcIzgWbO0Su68soDs-20" value="Juke Box" style="strokeColor=inherit;fillColor=inherit;gradientColor=inherit;shape=rect;fontStyle=1;html=1;whiteSpace=wrap;align=center;" parent="q4jWcIzgWbO0Su68soDs-5" vertex="1">
          <mxGeometry x="570" y="240" width="100" height="50" as="geometry" />
        </mxCell>
        <mxCell id="q4jWcIzgWbO0Su68soDs-21" value="simulates" style="strokeColor=inherit;fillColor=inherit;gradientColor=inherit;align=right;html=1;verticalAlign=bottom;endArrow=none;startArrow=diamondThin;startSize=14;startFill=1;edgeStyle=orthogonalEdgeStyle;endFill=0;labelBackgroundColor=none;rounded=0;" parent="q4jWcIzgWbO0Su68soDs-5" target="q4jWcIzgWbO0Su68soDs-20" edge="1">
          <mxGeometry x="1" relative="1" as="geometry">
            <mxPoint x="620" y="140" as="sourcePoint" />
            <mxPoint x="529" y="250" as="targetPoint" />
          </mxGeometry>
        </mxCell>
        <mxCell id="q4jWcIzgWbO0Su68soDs-22" value="1" style="resizable=0;html=1;align=left;verticalAlign=top;labelBackgroundColor=none;fontSize=10" parent="q4jWcIzgWbO0Su68soDs-21" connectable="0" vertex="1">
          <mxGeometry x="-1" relative="1" as="geometry" />
        </mxCell>
        <mxCell id="q4jWcIzgWbO0Su68soDs-23" value="1" style="resizable=0;html=1;align=right;verticalAlign=top;labelBackgroundColor=none;fontSize=10" parent="q4jWcIzgWbO0Su68soDs-21" connectable="0" vertex="1">
          <mxGeometry x="1" relative="1" as="geometry">
            <mxPoint x="10" y="-21" as="offset" />
          </mxGeometry>
        </mxCell>
      </root>
    </mxGraphModel>
  </diagram>
</mxfile>
